<?xml version="1.0" standalone="no"?>
<!DOCTYPE svg PUBLIC "-//W3C//DTD SVG 20010904//EN"
 "http://www.w3.org/TR/2001/REC-SVG-20010904/DTD/svg10.dtd">
<svg version="1.0" xmlns="http://www.w3.org/2000/svg"
 width="512.000000pt" height="512.000000pt" viewBox="0 0 512.000000 512.000000"
 preserveAspectRatio="xMidYMid meet">

<g transform="translate(0.000000,512.000000) scale(0.100000,-0.100000)"
fill="#000000" stroke="none">
<path d="M1313 4525 c-421 -76 -744 -402 -818 -824 -22 -124 -22 -1678 0
-1802 74 -425 399 -750 824 -824 125 -22 2367 -22 2492 0 425 74 750 399 824
824 22 124 22 1678 0 1802 -74 425 -399 750 -824 824 -116 21 -2385 21 -2498
0z m1352 -310 c100 -26 184 -74 261 -150 l70 -70 45 13 c30 9 81 12 159 9 94
-3 128 -9 184 -31 185 -71 309 -222 337 -409 l11 -77 65 -31 c129 -62 237
-191 278 -333 35 -119 6 -287 -67 -387 -30 -41 -30 -43 -14 -68 102 -158 101
-367 -2 -527 -61 -94 -173 -181 -274 -214 -21 -6 -38 -15 -38 -18 0 -4 -7 -37
-14 -73 -43 -203 -207 -359 -426 -405 -81 -17 -199 -14 -257 7 -32 10 -35 9
-93 -44 -221 -200 -573 -194 -780 13 l-55 55 -83 -14 c-170 -27 -353 32 -476
153 -88 88 -133 179 -151 308 l-6 46 -76 36 c-90 43 -196 143 -237 224 -79
157 -72 347 20 485 l27 41 -31 55 c-88 162 -85 356 8 501 51 79 146 161 232
200 l75 34 12 72 c35 207 204 372 431 420 76 16 181 14 248 -6 30 -8 35 -5 85
44 62 60 170 120 253 140 79 19 206 19 279 1z"/>
<path d="M2415 3656 c-44 -20 -124 -93 -125 -114 0 -4 -6 -15 -14 -24 -12 -16
-17 -15 -76 9 -53 21 -75 25 -130 21 -162 -12 -264 -132 -241 -281 6 -33 5
-50 -3 -52 -6 -2 -40 -11 -76 -20 -83 -20 -135 -56 -171 -120 -22 -38 -29 -63
-29 -103 0 -68 18 -110 74 -170 l45 -48 -40 -40 c-109 -105 -115 -240 -14
-333 50 -46 75 -58 153 -75 29 -6 53 -14 54 -19 0 -4 -3 -32 -6 -61 -14 -106
34 -195 127 -241 81 -39 147 -43 234 -12 l72 25 25 -42 c107 -182 351 -194
470 -24 l38 56 59 -24 c110 -45 238 -27 312 44 51 48 70 97 69 183 -2 83 2 88
68 89 42 0 123 44 162 88 84 93 76 210 -22 316 l-41 44 39 32 c115 92 123 256
17 348 -42 37 -67 49 -140 67 l-50 12 4 77 c3 67 0 83 -23 130 -61 125 -214
171 -361 111 -33 -14 -63 -25 -67 -25 -4 0 -21 27 -39 60 -51 96 -127 140
-243 140 -43 0 -76 -7 -111 -24z m-184 -541 c0 -5 -8 -12 -18 -14 -40 -7 -43
-19 -43 -155 l1 -131 75 80 c154 164 169 185 156 206 -7 10 -12 21 -12 24 0
10 219 5 225 -5 3 -6 -2 -13 -12 -16 -70 -22 -103 -48 -223 -170 -72 -73 -130
-138 -130 -143 0 -18 313 -333 359 -363 25 -15 57 -28 72 -28 32 0 48 -18 28
-32 -20 -13 -182 -2 -216 15 -27 15 -182 169 -276 276 l-47 53 0 -137 c0 -75
5 -145 10 -156 7 -12 21 -19 40 -19 16 0 31 -4 34 -9 14 -21 -25 -29 -139 -28
-105 2 -120 4 -123 20 -3 12 3 17 22 17 19 0 27 7 33 28 5 15 8 165 8 333 0
328 -2 339 -51 339 -24 0 -38 13 -27 24 11 11 253 2 254 -9z m769 0 c0 -9 -9
-15 -24 -15 -14 0 -32 -7 -41 -16 -15 -15 -16 -50 -13 -325 3 -352 -1 -336 90
-346 81 -8 121 8 144 60 10 23 26 42 34 42 19 0 25 -60 10 -114 -14 -52 -21
-53 -265 -43 -166 6 -190 9 -193 24 -2 12 5 17 25 20 27 3 28 6 36 73 4 39 7
187 5 331 -3 279 -6 294 -54 294 -24 0 -38 12 -27 24 3 3 66 6 140 6 112 0
133 -2 133 -15z"/>
</g>
</svg>
